<svg version="1" xmlns="http://www.w3.org/2000/svg" width="613.333" height="613.333" viewBox="0 0 460 460"><path d="M146 17c-6 5-24 35-31 50l-3 9-10 6c-9 5-10 6-19 7-15 2-19 1-30-2-12-3-23-4-28-2-3 2-9 13-11 20-1 6 1 21 4 24 2 2 5 2 11 1l14-4 23-6c17-6 30-8 32-7 5 2 5 5 2 20l-8 63v27l2 25 1 15c0 3-1 5-6 11l-17 19c-33 34-53 57-56 64l-4 13c-3 8-3 8-1 12 1 3 3 4 9 7 5 3 8 4 10 3 1 0 6-5 11-12 13-17 31-35 47-46l15-9c1 0 2 1 7 22l7 29 6 21 7 19 3 8c0 3 5 17 7 19 4 6 12 2 23-10 7-8 7-9 7-12-1-8-6-24-12-36l-9-21-7-15c-3-8-5-16-7-31-2-9-2-10 0-12s41-29 58-39c12-8 30-17 37-19s16-1 25 2c8 3 11 6 17 14 9 14 11 19 22 59l9 28 18 38c6 11 23 29 30 33 5 2 15 3 24 2 17-2 24-4 35-8l16-7 9-5c5-5 10-15 14-26 2-9 2-13 0-13-4 0-14 6-21 13-10 8-16 12-30 16-16 4-21 5-28 5s-8 0-13-3c-13-7-23-21-32-42l-11-40-8-39-9-17c-10-18-24-30-41-35-10-3-22-2-34 4l-71 37-18 10c-3 0-3 0-3-4-1-5-1-5 4-10l11-12c8-7 20-21 35-40l18-23c7-8 16-23 19-29 2-5 4-19 4-27s-2-18-7-33c-3-8-3-9-9-14-7-7-14-10-24-13h-18c-19 2-19 2-20 0-4-3-1-12 8-28l9-13 3-4c0-2-12-9-14-9l-3 2zm27 87c4 1 5 2 8 7 8 13 9 23 5 40-3 12-5 15-12 23l-25 28-14 15c-7 7-9 8-10 7-2-1-1-63 0-68l1-13c0-9 1-15 4-28 1-5 5-9 7-9l7-2c5-3 21-3 29 0z"/><path d="M151 121c-1 3 1 5 3 5s3-1 3-3-1-3-3-3l-3 1zM174 127c-3 3 0 8 4 5 2-2 1-6-1-6-2-1-1-1-3 1zM149 145c1 7 12 11 16 6 2-2 0-3-6-3-5 0-8-2-8-4l-2-1c-1-1-1-1-1 2zM240 55c-3 3-3 3-3 8 1 4 1 5 11 24l11 20c3 8 10 21 15 28l4 2c4 0 16-6 21-10 6-5 6-7-3-18l-12-17c-10-15-17-25-24-32-9-10-14-11-20-5z"/></svg>